# xmcd
#
# Track frame offsets: 
#        182
#        23475
#        39407
#        64035
#        81882
#        104100
#        123217
#        150870
#        175885
#        194637
#
# Disc length: 3032 seconds
#
# Revision: 4
# Processed by: cddbd v1.5.2PL0 Copyright (c) Steve Scherf et al.
# Submitted via: ExactAudioCopyFreeDBPlugin 1.0
#
DISCID=780bd60a
DTITLE=Kevin Montgomery - Fear Nothing
DYEAR=1900
DGENRE=
TTITLE0=Red-Blooded American Boy
TTITLE1=Everybody's Girl
TTITLE2=Code Of Honor
TTITLE3=I Won't Close My Eyes
TTITLE4=Which Way Is It Gonna Be
TTITLE5=I Want You
TTITLE6=Fear Nothing
TTITLE7=Josie's Getting Stronger
TTITLE8=Softer Years
TTITLE9=Don't Make Me Hate The Things I Love
EXTD=
EXTT0=
EXTT1=
EXTT2=
EXTT3=
EXTT4=
EXTT5=
EXTT6=
EXTT7=
EXTT8=
EXTT9=
PLAYORDER=
